<svg width="258" height="73" viewBox="0 0 258 73" fill="none" xmlns="http://www.w3.org/2000/svg">
<g clip-path="url(#clip0_55_46189)">
<path d="M258 7H6V74H258V7Z" fill="#A9A1A6"/>
<path d="M253 0H0V68H253V0Z" fill="#FFE000"/>
<path d="M7.74479 1.48584C6.90101 1.48584 6.21777 2.1768 6.21777 3.02734C6.21777 4.34685 7.74479 5.47557 7.74479 5.47557C7.74479 5.47557 9.27181 4.34685 9.27181 3.02734C9.27181 2.1759 8.58858 1.48584 7.74479 1.48584Z" fill="#0D0706"/>
<path d="M10.4528 1.83456C11.7613 1.83456 12.8789 0.293946 12.8789 0.293946C12.8789 0.293946 11.7604 -1.24756 10.4528 -1.24756C9.60991 -1.24756 8.92578 -0.557493 8.92578 0.293946C8.92578 1.14539 9.60991 1.83456 10.4528 1.83456Z" fill="#0D0706"/>
<path d="M5.03548 1.83456C5.87926 1.83456 6.5625 1.14539 6.5625 0.293946C6.5625 -0.557493 5.87926 -1.24756 5.03548 -1.24756C3.72699 -1.24756 2.60938 0.293946 2.60938 0.293946C2.60938 0.293946 3.72699 1.83456 5.03548 1.83456Z" fill="#0D0706"/>
<path d="M22.5895 1.48584C21.7457 1.48584 21.0625 2.1768 21.0625 3.02734C21.0625 4.34685 22.5895 5.47557 22.5895 5.47557C22.5895 5.47557 24.1165 4.34685 24.1165 3.02734C24.1165 2.1759 23.4333 1.48584 22.5895 1.48584Z" fill="#0D0706"/>
<path d="M25.2975 1.83456C26.606 1.83456 27.7236 0.293946 27.7236 0.293946C27.7236 0.293946 26.6051 -1.24756 25.2975 -1.24756C24.4546 -1.24756 23.7705 -0.557493 23.7705 0.293946C23.7705 1.14539 24.4537 1.83456 25.2975 1.83456Z" fill="#0D0706"/>
<path d="M19.8802 1.83456C20.724 1.83456 21.4072 1.14539 21.4072 0.293946C21.4072 -0.557493 20.724 -1.24756 19.8802 -1.24756C18.5717 -1.24756 17.4541 0.293946 17.4541 0.293946C17.4541 0.293946 18.5717 1.83456 19.8802 1.83456Z" fill="#0D0706"/>
<path d="M37.4333 1.48584C36.5895 1.48584 35.9062 2.1768 35.9062 3.02734C35.9062 4.34685 37.4333 5.47557 37.4333 5.47557C37.4333 5.47557 38.9603 4.34685 38.9603 3.02734C38.9603 2.1759 38.2771 1.48584 37.4333 1.48584Z" fill="#0D0706"/>
<path d="M40.1423 1.83456C41.4507 1.83456 42.5684 0.293946 42.5684 0.293946C42.5684 0.293946 41.4499 -1.24756 40.1423 -1.24756C39.2994 -1.24756 38.6152 -0.557493 38.6152 0.293946C38.6152 1.14539 39.2985 1.83456 40.1423 1.83456Z" fill="#0D0706"/>
<path d="M34.7249 1.83456C35.5687 1.83456 36.2519 1.14539 36.2519 0.293946C36.2519 -0.557493 35.5687 -1.24756 34.7249 -1.24756C33.4164 -1.24756 32.2988 0.293946 32.2988 0.293946C32.2988 0.293946 33.4164 1.83456 34.7249 1.83456Z" fill="#0D0706"/>
<path d="M52.278 1.48584C51.4342 1.48584 50.751 2.1768 50.751 3.02734C50.751 4.34685 52.278 5.47557 52.278 5.47557C52.278 5.47557 53.805 4.34685 53.805 3.02734C53.805 2.1759 53.1218 1.48584 52.278 1.48584Z" fill="#0D0706"/>
<path d="M54.987 1.83456C56.2955 1.83456 57.4131 0.293946 57.4131 0.293946C57.4131 0.293946 56.2946 -1.24756 54.987 -1.24756C54.1441 -1.24756 53.46 -0.557493 53.46 0.293946C53.46 1.14539 54.1441 1.83456 54.987 1.83456Z" fill="#0D0706"/>
<path d="M49.5706 1.83456C50.4144 1.83456 51.0977 1.14539 51.0977 0.293946C51.0977 -0.557493 50.4144 -1.24756 49.5706 -1.24756C48.2621 -1.24756 47.1445 0.293946 47.1445 0.293946C47.1445 0.293946 48.2621 1.83456 49.5706 1.83456Z" fill="#0D0706"/>
<path d="M67.071 1.48584C66.2272 1.48584 65.5439 2.1768 65.5439 3.02734C65.5439 4.34685 67.071 5.47557 67.071 5.47557C67.071 5.47557 68.598 4.34685 68.598 3.02734C68.598 2.1759 67.9147 1.48584 67.071 1.48584Z" fill="#0D0706"/>
<path d="M69.7799 1.83456C71.0884 1.83456 72.2061 0.293946 72.2061 0.293946C72.2061 0.293946 71.0875 -1.24756 69.7799 -1.24756C68.9371 -1.24756 68.2529 -0.557493 68.2529 0.293946C68.2529 1.14539 68.9362 1.83456 69.7799 1.83456Z" fill="#0D0706"/>
<path d="M64.3626 1.83456C65.2064 1.83456 65.8896 1.14539 65.8896 0.293946C65.8896 -0.557493 65.2064 -1.24756 64.3626 -1.24756C63.0541 -1.24756 61.9365 0.293946 61.9365 0.293946C61.9365 0.293946 63.0541 1.83456 64.3626 1.83456Z" fill="#0D0706"/>
<path d="M81.9157 1.4856C81.0719 1.4856 80.3887 2.17655 80.3887 3.0271C80.3887 4.34661 81.9157 5.47532 81.9157 5.47532C81.9157 5.47532 83.4427 4.34661 83.4427 3.0271C83.4427 2.17566 82.7595 1.4856 81.9157 1.4856Z" fill="#0D0706"/>
<path d="M84.6237 1.83432C85.9322 1.83432 87.0498 0.293702 87.0498 0.293702C87.0498 0.293702 85.9313 -1.2478 84.6237 -1.2478C83.7808 -1.2478 83.0967 -0.557738 83.0967 0.293702C83.0967 1.14514 83.7799 1.83432 84.6237 1.83432Z" fill="#0D0706"/>
<path d="M79.2064 1.83432C80.0502 1.83432 80.7334 1.14514 80.7334 0.293702C80.7334 -0.557738 80.0502 -1.2478 79.2064 -1.2478C77.8979 -1.2478 76.7803 0.293702 76.7803 0.293702C76.7803 0.293702 77.8979 1.83432 79.2064 1.83432Z" fill="#0D0706"/>
<path d="M96.7604 1.4856C95.9166 1.4856 95.2334 2.17655 95.2334 3.0271C95.2334 4.34661 96.7604 5.47532 96.7604 5.47532C96.7604 5.47532 98.2874 4.34661 98.2874 3.0271C98.2874 2.17566 97.6042 1.4856 96.7604 1.4856Z" fill="#0D0706"/>
<path d="M99.4684 1.83432C100.777 1.83432 101.895 0.293702 101.895 0.293702C101.895 0.293702 100.776 -1.2478 99.4684 -1.2478C98.6255 -1.2478 97.9414 -0.557738 97.9414 0.293702C97.9414 1.14514 98.6246 1.83432 99.4684 1.83432Z" fill="#0D0706"/>
<path d="M94.0511 1.83432C94.8949 1.83432 95.5781 1.14514 95.5781 0.293702C95.5781 -0.557738 94.8949 -1.2478 94.0511 -1.2478C92.7426 -1.2478 91.625 0.293702 91.625 0.293702C91.625 0.293702 92.7426 1.83432 94.0511 1.83432Z" fill="#0D0706"/>
<path d="M111.654 1.4856C110.81 1.4856 110.127 2.17655 110.127 3.0271C110.127 4.34661 111.654 5.47532 111.654 5.47532C111.654 5.47532 113.181 4.34661 113.181 3.0271C113.181 2.17566 112.498 1.4856 111.654 1.4856Z" fill="#0D0706"/>
<path d="M114.363 1.83432C115.671 1.83432 116.789 0.293702 116.789 0.293702C116.789 0.293702 115.671 -1.2478 114.363 -1.2478C113.52 -1.2478 112.836 -0.557738 112.836 0.293702C112.836 1.14514 113.519 1.83432 114.363 1.83432Z" fill="#0D0706"/>
<path d="M108.947 1.83432C109.79 1.83432 110.474 1.14514 110.474 0.293702C110.474 -0.557738 109.79 -1.2478 108.947 -1.2478C107.638 -1.2478 106.521 0.293702 106.521 0.293702C106.521 0.293702 107.638 1.83432 108.947 1.83432Z" fill="#0D0706"/>
<path d="M126.5 1.48584C125.657 1.48584 124.973 2.1768 124.973 3.02734C124.973 4.34685 126.5 5.47557 126.5 5.47557C126.5 5.47557 128.027 4.34685 128.027 3.02734C128.027 2.1759 127.343 1.48584 126.5 1.48584Z" fill="#0D0706"/>
<path d="M129.208 1.83456C130.516 1.83456 131.634 0.293946 131.634 0.293946C131.634 0.293946 130.515 -1.24756 129.208 -1.24756C128.365 -1.24756 127.681 -0.557493 127.681 0.293946C127.681 1.14539 128.364 1.83456 129.208 1.83456Z" fill="#0D0706"/>
<path d="M123.79 1.83456C124.634 1.83456 125.317 1.14539 125.317 0.293946C125.317 -0.557493 124.634 -1.24756 123.79 -1.24756C122.482 -1.24756 121.364 0.293946 121.364 0.293946C121.364 0.293946 122.482 1.83456 123.79 1.83456Z" fill="#0D0706"/>
<path d="M141.345 1.48584C140.502 1.48584 139.818 2.1768 139.818 3.02734C139.818 4.34685 141.345 5.47557 141.345 5.47557C141.345 5.47557 142.872 4.34685 142.872 3.02734C142.872 2.1759 142.189 1.48584 141.345 1.48584Z" fill="#0D0706"/>
<path d="M144.052 1.83456C145.361 1.83456 146.479 0.293946 146.479 0.293946C146.479 0.293946 145.36 -1.24756 144.052 -1.24756C143.21 -1.24756 142.525 -0.557493 142.525 0.293946C142.525 1.14539 143.209 1.83456 144.052 1.83456Z" fill="#0D0706"/>
<path d="M138.636 1.83456C139.48 1.83456 140.163 1.14539 140.163 0.293946C140.163 -0.557493 139.48 -1.24756 138.636 -1.24756C137.328 -1.24756 136.21 0.293946 136.21 0.293946C136.21 0.293946 137.328 1.83456 138.636 1.83456Z" fill="#0D0706"/>
<path d="M141.345 1.48608C140.502 1.48608 139.818 2.17704 139.818 3.02759C139.818 4.3471 141.345 5.47581 141.345 5.47581C141.345 5.47581 142.872 4.3471 142.872 3.02759C142.872 2.17615 142.189 1.48608 141.345 1.48608Z" fill="#0D0706"/>
<path d="M144.052 1.83456C145.361 1.83456 146.479 0.293946 146.479 0.293946C146.479 0.293946 145.36 -1.24756 144.052 -1.24756C143.21 -1.24756 142.525 -0.557493 142.525 0.293946C142.525 1.14539 143.21 1.83456 144.052 1.83456Z" fill="#0D0706"/>
<path d="M138.636 1.83456C139.48 1.83456 140.163 1.14539 140.163 0.293946C140.163 -0.557493 139.48 -1.24756 138.636 -1.24756C137.328 -1.24756 136.21 0.293946 136.21 0.293946C136.21 0.293946 137.328 1.83456 138.636 1.83456Z" fill="#0D0706"/>
<path d="M156.189 1.48584C155.345 1.48584 154.662 2.1768 154.662 3.02734C154.662 4.34685 156.189 5.47557 156.189 5.47557C156.189 5.47557 157.716 4.34685 157.716 3.02734C157.716 2.1759 157.033 1.48584 156.189 1.48584Z" fill="#0D0706"/>
<path d="M158.897 1.83456C160.206 1.83456 161.323 0.293946 161.323 0.293946C161.323 0.293946 160.205 -1.24756 158.897 -1.24756C158.054 -1.24756 157.37 -0.557493 157.37 0.293946C157.37 1.14539 158.053 1.83456 158.897 1.83456Z" fill="#0D0706"/>
<path d="M153.481 1.83456C154.325 1.83456 155.008 1.14539 155.008 0.293946C155.008 -0.557493 154.325 -1.24756 153.481 -1.24756C152.172 -1.24756 151.055 0.293946 151.055 0.293946C151.055 0.293946 152.172 1.83456 153.481 1.83456Z" fill="#0D0706"/>
<path d="M171.035 1.48584C170.191 1.48584 169.508 2.1768 169.508 3.02734C169.508 4.34685 171.035 5.47557 171.035 5.47557C171.035 5.47557 172.562 4.34685 172.562 3.02734C172.562 2.1759 171.879 1.48584 171.035 1.48584Z" fill="#0D0706"/>
<path d="M173.743 1.83456C175.051 1.83456 176.169 0.293946 176.169 0.293946C176.169 0.293946 175.05 -1.24756 173.743 -1.24756C172.9 -1.24756 172.216 -0.557493 172.216 0.293946C172.216 1.14539 172.899 1.83456 173.743 1.83456Z" fill="#0D0706"/>
<path d="M168.326 1.83456C169.169 1.83456 169.853 1.14539 169.853 0.293946C169.853 -0.557493 169.169 -1.24756 168.326 -1.24756C167.017 -1.24756 165.899 0.293946 165.899 0.293946C165.899 0.293946 167.017 1.83456 168.326 1.83456Z" fill="#0D0706"/>
<path d="M185.879 1.4856C185.035 1.4856 184.352 2.17655 184.352 3.0271C184.352 4.34661 185.879 5.47532 185.879 5.47532C185.879 5.47532 187.406 4.34661 187.406 3.0271C187.406 2.17566 186.722 1.4856 185.879 1.4856Z" fill="#0D0706"/>
<path d="M188.587 1.83432C189.895 1.83432 191.013 0.293702 191.013 0.293702C191.013 0.293702 189.894 -1.2478 188.587 -1.2478C187.744 -1.2478 187.06 -0.557738 187.06 0.293702C187.06 1.14514 187.744 1.83432 188.587 1.83432Z" fill="#0D0706"/>
<path d="M183.169 1.83432C184.013 1.83432 184.696 1.14514 184.696 0.293702C184.696 -0.557738 184.013 -1.2478 183.169 -1.2478C181.861 -1.2478 180.743 0.293702 180.743 0.293702C180.743 0.293702 181.861 1.83432 183.169 1.83432Z" fill="#0D0706"/>
<path d="M200.672 1.48584C199.828 1.48584 199.145 2.1768 199.145 3.02734C199.145 4.34685 200.672 5.47557 200.672 5.47557C200.672 5.47557 202.199 4.34685 202.199 3.02734C202.199 2.1759 201.515 1.48584 200.672 1.48584Z" fill="#0D0706"/>
<path d="M203.381 1.83456C204.689 1.83456 205.807 0.293946 205.807 0.293946C205.807 0.293946 204.688 -1.24756 203.381 -1.24756C202.538 -1.24756 201.854 -0.557493 201.854 0.293946C201.854 1.14539 202.537 1.83456 203.381 1.83456Z" fill="#0D0706"/>
<path d="M197.963 1.83432C198.807 1.83432 199.49 1.14514 199.49 0.293702C199.49 -0.557738 198.807 -1.2478 197.963 -1.2478C196.655 -1.2478 195.537 0.293702 195.537 0.293702C195.537 0.293702 196.655 1.83432 197.963 1.83432Z" fill="#0D0706"/>
<path d="M215.516 1.48584C214.673 1.48584 213.989 2.1768 213.989 3.02734C213.989 4.34685 215.516 5.47557 215.516 5.47557C215.516 5.47557 217.043 4.34685 217.043 3.02734C217.043 2.1759 216.36 1.48584 215.516 1.48584Z" fill="#0D0706"/>
<path d="M218.224 1.83456C219.533 1.83456 220.65 0.293946 220.65 0.293946C220.65 0.293946 219.532 -1.24756 218.224 -1.24756C217.381 -1.24756 216.697 -0.557493 216.697 0.293946C216.697 1.14539 217.38 1.83456 218.224 1.83456Z" fill="#0D0706"/>
<path d="M212.808 1.83456C213.652 1.83456 214.335 1.14539 214.335 0.293946C214.335 -0.557493 213.652 -1.24756 212.808 -1.24756C211.499 -1.24756 210.382 0.293946 210.382 0.293946C210.382 0.293946 211.499 1.83456 212.808 1.83456Z" fill="#0D0706"/>
<path d="M230.359 1.4856C229.515 1.4856 228.832 2.17655 228.832 3.0271C228.832 4.34661 230.359 5.47532 230.359 5.47532C230.359 5.47532 231.886 4.34661 231.886 3.0271C231.886 2.17566 231.203 1.4856 230.359 1.4856Z" fill="#0D0706"/>
<path d="M233.068 1.83456C234.377 1.83456 235.494 0.293946 235.494 0.293946C235.494 0.293946 234.376 -1.24756 233.068 -1.24756C232.225 -1.24756 231.541 -0.557493 231.541 0.293946C231.541 1.14539 232.224 1.83456 233.068 1.83456Z" fill="#0D0706"/>
<path d="M227.653 1.83456C228.496 1.83456 229.18 1.14539 229.18 0.293946C229.18 -0.557493 228.496 -1.24756 227.653 -1.24756C226.344 -1.24756 225.227 0.293946 225.227 0.293946C225.227 0.293946 226.344 1.83456 227.653 1.83456Z" fill="#0D0706"/>
<path d="M245.256 1.4856C244.412 1.4856 243.729 2.17655 243.729 3.0271C243.729 4.34661 245.256 5.47532 245.256 5.47532C245.256 5.47532 246.783 4.34661 246.783 3.0271C246.783 2.17566 246.099 1.4856 245.256 1.4856Z" fill="#0D0706"/>
<path d="M247.964 1.83432C249.272 1.83432 250.39 0.293702 250.39 0.293702C250.39 0.293702 249.271 -1.2478 247.964 -1.2478C247.121 -1.2478 246.437 -0.557738 246.437 0.293702C246.437 1.14514 247.12 1.83432 247.964 1.83432Z" fill="#0D0706"/>
<path d="M242.546 1.83456C243.39 1.83456 244.073 1.14539 244.073 0.293946C244.073 -0.557493 243.39 -1.24756 242.546 -1.24756C241.238 -1.24756 240.12 0.293946 240.12 0.293946C240.12 0.293946 241.238 1.83456 242.546 1.83456Z" fill="#0D0706"/>
<g clip-path="url(#clip1_55_46189)">
<path d="M7.74479 67.4773C6.90101 67.4773 6.21777 68.1683 6.21777 69.0188C6.21777 70.3383 7.74479 71.467 7.74479 71.467C7.74479 71.467 9.27181 70.3383 9.27181 69.0188C9.27181 68.1674 8.58858 67.4773 7.74479 67.4773Z" fill="#0D0706"/>
<path d="M7.74479 65.0922C8.58858 65.0922 9.27181 64.4021 9.27181 63.5507C9.27181 62.2303 7.74479 61.1016 7.74479 61.1016C7.74479 61.1016 6.21777 62.2294 6.21777 63.5507C6.21777 64.4012 6.9019 65.0922 7.74479 65.0922Z" fill="#0D0706"/>
<path d="M10.4528 67.8258C11.7613 67.8258 12.8789 66.2852 12.8789 66.2852C12.8789 66.2852 11.7604 64.7437 10.4528 64.7437C9.60991 64.7437 8.92578 65.4337 8.92578 66.2852C8.92578 67.1366 9.60991 67.8258 10.4528 67.8258Z" fill="#0D0706"/>
<path d="M5.03548 67.8258C5.87926 67.8258 6.5625 67.1366 6.5625 66.2852C6.5625 65.4337 5.87926 64.7437 5.03548 64.7437C3.72699 64.7437 2.60938 66.2852 2.60938 66.2852C2.60938 66.2852 3.72699 67.8258 5.03548 67.8258Z" fill="#0D0706"/>
<path d="M22.5895 67.4773C21.7457 67.4773 21.0625 68.1683 21.0625 69.0188C21.0625 70.3383 22.5895 71.467 22.5895 71.467C22.5895 71.467 24.1165 70.3383 24.1165 69.0188C24.1165 68.1674 23.4333 67.4773 22.5895 67.4773Z" fill="#0D0706"/>
<path d="M22.5895 65.0924C23.4333 65.0924 24.1165 64.4024 24.1165 63.5509C24.1165 62.2305 22.5895 61.1018 22.5895 61.1018C22.5895 61.1018 21.0625 62.2296 21.0625 63.5509C21.0625 64.4015 21.7466 65.0924 22.5895 65.0924Z" fill="#0D0706"/>
<path d="M25.2975 67.8258C26.606 67.8258 27.7236 66.2852 27.7236 66.2852C27.7236 66.2852 26.6051 64.7437 25.2975 64.7437C24.4546 64.7437 23.7705 65.4337 23.7705 66.2852C23.7705 67.1366 24.4537 67.8258 25.2975 67.8258Z" fill="#0D0706"/>
<path d="M19.8802 67.8258C20.724 67.8258 21.4072 67.1366 21.4072 66.2852C21.4072 65.4337 20.724 64.7437 19.8802 64.7437C18.5717 64.7437 17.4541 66.2852 17.4541 66.2852C17.4541 66.2852 18.5717 67.8258 19.8802 67.8258Z" fill="#0D0706"/>
<path d="M37.4333 67.4773C36.5895 67.4773 35.9062 68.1683 35.9062 69.0188C35.9062 70.3383 37.4333 71.467 37.4333 71.467C37.4333 71.467 38.9603 70.3383 38.9603 69.0188C38.9603 68.1674 38.2771 67.4773 37.4333 67.4773Z" fill="#0D0706"/>
<path d="M37.4333 65.0922C38.2771 65.0922 38.9603 64.4021 38.9603 63.5507C38.9603 62.2303 37.4333 61.1016 37.4333 61.1016C37.4333 61.1016 35.9062 62.2294 35.9062 63.5507C35.9062 64.4012 36.5904 65.0922 37.4333 65.0922Z" fill="#0D0706"/>
<path d="M40.1423 67.8258C41.4507 67.8258 42.5684 66.2852 42.5684 66.2852C42.5684 66.2852 41.4499 64.7437 40.1423 64.7437C39.2994 64.7437 38.6152 65.4337 38.6152 66.2852C38.6152 67.1366 39.2985 67.8258 40.1423 67.8258Z" fill="#0D0706"/>
<path d="M34.7249 67.8258C35.5687 67.8258 36.2519 67.1366 36.2519 66.2852C36.2519 65.4337 35.5687 64.7437 34.7249 64.7437C33.4164 64.7437 32.2988 66.2852 32.2988 66.2852C32.2988 66.2852 33.4164 67.8258 34.7249 67.8258Z" fill="#0D0706"/>
<path d="M52.278 67.4773C51.4342 67.4773 50.751 68.1683 50.751 69.0188C50.751 70.3383 52.278 71.467 52.278 71.467C52.278 71.467 53.805 70.3383 53.805 69.0188C53.805 68.1674 53.1218 67.4773 52.278 67.4773Z" fill="#0D0706"/>
<path d="M52.278 65.0924C53.1218 65.0924 53.805 64.4024 53.805 63.5509C53.805 62.2305 52.278 61.1018 52.278 61.1018C52.278 61.1018 50.751 62.2296 50.751 63.5509C50.751 64.4015 51.4351 65.0924 52.278 65.0924Z" fill="#0D0706"/>
<path d="M54.987 67.8258C56.2955 67.8258 57.4131 66.2852 57.4131 66.2852C57.4131 66.2852 56.2946 64.7437 54.987 64.7437C54.1441 64.7437 53.46 65.4337 53.46 66.2852C53.46 67.1366 54.1441 67.8258 54.987 67.8258Z" fill="#0D0706"/>
<path d="M49.5706 67.8258C50.4144 67.8258 51.0977 67.1366 51.0977 66.2852C51.0977 65.4337 50.4144 64.7437 49.5706 64.7437C48.2621 64.7437 47.1445 66.2852 47.1445 66.2852C47.1445 66.2852 48.2621 67.8258 49.5706 67.8258Z" fill="#0D0706"/>
<path d="M67.071 67.4773C66.2272 67.4773 65.5439 68.1683 65.5439 69.0188C65.5439 70.3383 67.071 71.467 67.071 71.467C67.071 71.467 68.598 70.3383 68.598 69.0188C68.598 68.1674 67.9147 67.4773 67.071 67.4773Z" fill="#0D0706"/>
<path d="M67.071 65.0924C67.9147 65.0924 68.598 64.4024 68.598 63.5509C68.598 62.2305 67.071 61.1018 67.071 61.1018C67.071 61.1018 65.5439 62.2296 65.5439 63.5509C65.5439 64.4015 66.2281 65.0924 67.071 65.0924Z" fill="#0D0706"/>
<path d="M69.7799 67.8258C71.0884 67.8258 72.2061 66.2852 72.2061 66.2852C72.2061 66.2852 71.0875 64.7437 69.7799 64.7437C68.9371 64.7437 68.2529 65.4337 68.2529 66.2852C68.2529 67.1366 68.9362 67.8258 69.7799 67.8258Z" fill="#0D0706"/>
<path d="M64.3626 67.8258C65.2064 67.8258 65.8896 67.1366 65.8896 66.2852C65.8896 65.4337 65.2064 64.7437 64.3626 64.7437C63.0541 64.7437 61.9365 66.2852 61.9365 66.2852C61.9365 66.2852 63.0541 67.8258 64.3626 67.8258Z" fill="#0D0706"/>
<path d="M81.9157 67.4775C81.0719 67.4775 80.3887 68.1685 80.3887 69.019C80.3887 70.3386 81.9157 71.4673 81.9157 71.4673C81.9157 71.4673 83.4427 70.3386 83.4427 69.019C83.4427 68.1676 82.7595 67.4775 81.9157 67.4775Z" fill="#0D0706"/>
<path d="M81.9157 65.0924C82.7595 65.0924 83.4427 64.4024 83.4427 63.5509C83.4427 62.2305 81.9157 61.1018 81.9157 61.1018C81.9157 61.1018 80.3887 62.2296 80.3887 63.5509C80.3887 64.4015 81.0728 65.0924 81.9157 65.0924Z" fill="#0D0706"/>
<path d="M84.6237 67.826C85.9322 67.826 87.0498 66.2854 87.0498 66.2854C87.0498 66.2854 85.9313 64.7439 84.6237 64.7439C83.7808 64.7439 83.0967 65.434 83.0967 66.2854C83.0967 67.1368 83.7799 67.826 84.6237 67.826Z" fill="#0D0706"/>
<path d="M79.2064 67.826C80.0502 67.826 80.7334 67.1368 80.7334 66.2854C80.7334 65.434 80.0502 64.7439 79.2064 64.7439C77.8979 64.7439 76.7803 66.2854 76.7803 66.2854C76.7803 66.2854 77.8979 67.826 79.2064 67.826Z" fill="#0D0706"/>
<path d="M96.7604 67.4775C95.9166 67.4775 95.2334 68.1685 95.2334 69.019C95.2334 70.3386 96.7604 71.4673 96.7604 71.4673C96.7604 71.4673 98.2874 70.3386 98.2874 69.019C98.2874 68.1676 97.6042 67.4775 96.7604 67.4775Z" fill="#0D0706"/>
<path d="M96.7604 65.0927C97.6042 65.0927 98.2874 64.4026 98.2874 63.5512C98.2874 62.2308 96.7604 61.1021 96.7604 61.1021C96.7604 61.1021 95.2334 62.2299 95.2334 63.5512C95.2334 64.4017 95.9175 65.0927 96.7604 65.0927Z" fill="#0D0706"/>
<path d="M99.4684 67.826C100.777 67.826 101.895 66.2854 101.895 66.2854C101.895 66.2854 100.776 64.7439 99.4684 64.7439C98.6255 64.7439 97.9414 65.434 97.9414 66.2854C97.9414 67.1368 98.6246 67.826 99.4684 67.826Z" fill="#0D0706"/>
<path d="M94.0511 67.826C94.8949 67.826 95.5781 67.1368 95.5781 66.2854C95.5781 65.434 94.8949 64.7439 94.0511 64.7439C92.7426 64.7439 91.625 66.2854 91.625 66.2854C91.625 66.2854 92.7426 67.826 94.0511 67.826Z" fill="#0D0706"/>
<path d="M111.654 67.4775C110.81 67.4775 110.127 68.1685 110.127 69.019C110.127 70.3386 111.654 71.4673 111.654 71.4673C111.654 71.4673 113.181 70.3386 113.181 69.019C113.181 68.1676 112.498 67.4775 111.654 67.4775Z" fill="#0D0706"/>
<path d="M111.654 65.0927C112.498 65.0927 113.181 64.4026 113.181 63.5512C113.181 62.2308 111.654 61.1021 111.654 61.1021C111.654 61.1021 110.127 62.2299 110.127 63.5512C110.127 64.4017 110.811 65.0927 111.654 65.0927Z" fill="#0D0706"/>
<path d="M114.363 67.826C115.671 67.826 116.789 66.2854 116.789 66.2854C116.789 66.2854 115.671 64.7439 114.363 64.7439C113.52 64.7439 112.836 65.434 112.836 66.2854C112.836 67.1368 113.519 67.826 114.363 67.826Z" fill="#0D0706"/>
<path d="M108.947 67.826C109.79 67.826 110.474 67.1368 110.474 66.2854C110.474 65.434 109.79 64.7439 108.947 64.7439C107.638 64.7439 106.521 66.2854 106.521 66.2854C106.521 66.2854 107.638 67.826 108.947 67.826Z" fill="#0D0706"/>
<path d="M126.5 67.4773C125.657 67.4773 124.973 68.1683 124.973 69.0188C124.973 70.3383 126.5 71.467 126.5 71.467C126.5 71.467 128.027 70.3383 128.027 69.0188C128.027 68.1674 127.343 67.4773 126.5 67.4773Z" fill="#0D0706"/>
<path d="M126.5 65.0924C127.343 65.0924 128.027 64.4024 128.027 63.5509C128.027 62.2305 126.5 61.1018 126.5 61.1018C126.5 61.1018 124.973 62.2296 124.973 63.5509C124.973 64.4015 125.657 65.0924 126.5 65.0924Z" fill="#0D0706"/>
<path d="M129.208 67.8258C130.516 67.8258 131.634 66.2852 131.634 66.2852C131.634 66.2852 130.515 64.7437 129.208 64.7437C128.365 64.7437 127.681 65.4337 127.681 66.2852C127.681 67.1366 128.364 67.8258 129.208 67.8258Z" fill="#0D0706"/>
<path d="M123.79 67.8258C124.634 67.8258 125.317 67.1366 125.317 66.2852C125.317 65.4337 124.634 64.7437 123.79 64.7437C122.482 64.7437 121.364 66.2852 121.364 66.2852C121.364 66.2852 122.482 67.8258 123.79 67.8258Z" fill="#0D0706"/>
<path d="M141.345 67.4773C140.502 67.4773 139.818 68.1683 139.818 69.0188C139.818 70.3383 141.345 71.467 141.345 71.467C141.345 71.467 142.872 70.3383 142.872 69.0188C142.872 68.1674 142.189 67.4773 141.345 67.4773Z" fill="#0D0706"/>
<path d="M141.345 65.0922C142.189 65.0922 142.872 64.4021 142.872 63.5507C142.872 62.2303 141.345 61.1016 141.345 61.1016C141.345 61.1016 139.818 62.2294 139.818 63.5507C139.818 64.4012 140.502 65.0922 141.345 65.0922Z" fill="#0D0706"/>
<path d="M144.052 67.8258C145.361 67.8258 146.479 66.2852 146.479 66.2852C146.479 66.2852 145.36 64.7437 144.052 64.7437C143.21 64.7437 142.525 65.4337 142.525 66.2852C142.525 67.1366 143.209 67.8258 144.052 67.8258Z" fill="#0D0706"/>
<path d="M138.636 67.8258C139.48 67.8258 140.163 67.1366 140.163 66.2852C140.163 65.4337 139.48 64.7437 138.636 64.7437C137.328 64.7437 136.21 66.2852 136.21 66.2852C136.21 66.2852 137.328 67.8258 138.636 67.8258Z" fill="#0D0706"/>
<path d="M141.345 67.4773C140.502 67.4773 139.818 68.1683 139.818 69.0188C139.818 70.3383 141.345 71.467 141.345 71.467C141.345 71.467 142.872 70.3383 142.872 69.0188C142.872 68.1674 142.189 67.4773 141.345 67.4773Z" fill="#0D0706"/>
<path d="M141.345 65.0922C142.189 65.0922 142.872 64.4021 142.872 63.5507C142.872 62.2303 141.345 61.1016 141.345 61.1016C141.345 61.1016 139.818 62.2294 139.818 63.5507C139.818 64.4012 140.502 65.0922 141.345 65.0922Z" fill="#0D0706"/>
<path d="M144.052 67.8258C145.361 67.8258 146.479 66.2852 146.479 66.2852C146.479 66.2852 145.36 64.7437 144.052 64.7437C143.21 64.7437 142.525 65.4337 142.525 66.2852C142.525 67.1366 143.21 67.8258 144.052 67.8258Z" fill="#0D0706"/>
<path d="M138.636 67.8258C139.48 67.8258 140.163 67.1366 140.163 66.2852C140.163 65.4337 139.48 64.7437 138.636 64.7437C137.328 64.7437 136.21 66.2852 136.21 66.2852C136.21 66.2852 137.328 67.8258 138.636 67.8258Z" fill="#0D0706"/>
<path d="M156.189 67.4773C155.345 67.4773 154.662 68.1683 154.662 69.0188C154.662 70.3383 156.189 71.467 156.189 71.467C156.189 71.467 157.716 70.3383 157.716 69.0188C157.716 68.1674 157.033 67.4773 156.189 67.4773Z" fill="#0D0706"/>
<path d="M156.189 65.0922C157.033 65.0922 157.716 64.4021 157.716 63.5507C157.716 62.2303 156.189 61.1016 156.189 61.1016C156.189 61.1016 154.662 62.2294 154.662 63.5507C154.662 64.4012 155.346 65.0922 156.189 65.0922Z" fill="#0D0706"/>
<path d="M158.897 67.8258C160.206 67.8258 161.323 66.2852 161.323 66.2852C161.323 66.2852 160.205 64.7437 158.897 64.7437C158.054 64.7437 157.37 65.4337 157.37 66.2852C157.37 67.1366 158.053 67.8258 158.897 67.8258Z" fill="#0D0706"/>
<path d="M153.481 67.8258C154.325 67.8258 155.008 67.1366 155.008 66.2852C155.008 65.4337 154.325 64.7437 153.481 64.7437C152.172 64.7437 151.055 66.2852 151.055 66.2852C151.055 66.2852 152.172 67.8258 153.481 67.8258Z" fill="#0D0706"/>
<path d="M171.035 67.4775C170.191 67.4775 169.508 68.1685 169.508 69.019C169.508 70.3386 171.035 71.4673 171.035 71.4673C171.035 71.4673 172.562 70.3386 172.562 69.019C172.562 68.1676 171.879 67.4775 171.035 67.4775Z" fill="#0D0706"/>
<path d="M171.035 65.0927C171.879 65.0927 172.562 64.4026 172.562 63.5512C172.562 62.2308 171.035 61.1021 171.035 61.1021C171.035 61.1021 169.508 62.2299 169.508 63.5512C169.508 64.4017 170.192 65.0927 171.035 65.0927Z" fill="#0D0706"/>
<path d="M173.743 67.826C175.051 67.826 176.169 66.2854 176.169 66.2854C176.169 66.2854 175.05 64.7439 173.743 64.7439C172.9 64.7439 172.216 65.434 172.216 66.2854C172.216 67.1368 172.899 67.826 173.743 67.826Z" fill="#0D0706"/>
<path d="M168.326 67.826C169.169 67.826 169.853 67.1368 169.853 66.2854C169.853 65.434 169.169 64.7439 168.326 64.7439C167.017 64.7439 165.899 66.2854 165.899 66.2854C165.899 66.2854 167.017 67.826 168.326 67.826Z" fill="#0D0706"/>
<path d="M185.879 67.4775C185.035 67.4775 184.352 68.1685 184.352 69.019C184.352 70.3386 185.879 71.4673 185.879 71.4673C185.879 71.4673 187.406 70.3386 187.406 69.019C187.406 68.1676 186.722 67.4775 185.879 67.4775Z" fill="#0D0706"/>
<path d="M185.879 65.0924C186.722 65.0924 187.406 64.4024 187.406 63.5509C187.406 62.2305 185.879 61.1018 185.879 61.1018C185.879 61.1018 184.352 62.2296 184.352 63.5509C184.352 64.4015 185.036 65.0924 185.879 65.0924Z" fill="#0D0706"/>
<path d="M188.587 67.826C189.895 67.826 191.013 66.2854 191.013 66.2854C191.013 66.2854 189.894 64.7439 188.587 64.7439C187.744 64.7439 187.06 65.434 187.06 66.2854C187.06 67.1368 187.744 67.826 188.587 67.826Z" fill="#0D0706"/>
<path d="M183.169 67.826C184.013 67.826 184.696 67.1368 184.696 66.2854C184.696 65.434 184.013 64.7439 183.169 64.7439C181.861 64.7439 180.743 66.2854 180.743 66.2854C180.743 66.2854 181.861 67.826 183.169 67.826Z" fill="#0D0706"/>
<path d="M200.672 67.4775C199.828 67.4775 199.145 68.1685 199.145 69.019C199.145 70.3386 200.672 71.4673 200.672 71.4673C200.672 71.4673 202.199 70.3386 202.199 69.019C202.199 68.1676 201.515 67.4775 200.672 67.4775Z" fill="#0D0706"/>
<path d="M200.672 65.0927C201.515 65.0927 202.199 64.4026 202.199 63.5512C202.199 62.2308 200.672 61.1021 200.672 61.1021C200.672 61.1021 199.145 62.2299 199.145 63.5512C199.145 64.4017 199.829 65.0927 200.672 65.0927Z" fill="#0D0706"/>
<path d="M203.381 67.826C204.689 67.826 205.807 66.2854 205.807 66.2854C205.807 66.2854 204.688 64.7439 203.381 64.7439C202.538 64.7439 201.854 65.434 201.854 66.2854C201.854 67.1368 202.537 67.826 203.381 67.826Z" fill="#0D0706"/>
<path d="M197.963 67.826C198.807 67.826 199.49 67.1368 199.49 66.2854C199.49 65.434 198.807 64.7439 197.963 64.7439C196.655 64.7439 195.537 66.2854 195.537 66.2854C195.537 66.2854 196.655 67.826 197.963 67.826Z" fill="#0D0706"/>
<path d="M215.516 67.4775C214.673 67.4775 213.989 68.1685 213.989 69.019C213.989 70.3386 215.516 71.4673 215.516 71.4673C215.516 71.4673 217.043 70.3386 217.043 69.019C217.043 68.1676 216.36 67.4775 215.516 67.4775Z" fill="#0D0706"/>
<path d="M215.516 65.0927C216.36 65.0927 217.043 64.4026 217.043 63.5512C217.043 62.2308 215.516 61.1021 215.516 61.1021C215.516 61.1021 213.989 62.2299 213.989 63.5512C213.989 64.4017 214.673 65.0927 215.516 65.0927Z" fill="#0D0706"/>
<path d="M218.224 67.826C219.533 67.826 220.65 66.2854 220.65 66.2854C220.65 66.2854 219.532 64.7439 218.224 64.7439C217.381 64.7439 216.697 65.434 216.697 66.2854C216.697 67.1368 217.38 67.826 218.224 67.826Z" fill="#0D0706"/>
<path d="M212.808 67.826C213.652 67.826 214.335 67.1368 214.335 66.2854C214.335 65.434 213.652 64.7439 212.808 64.7439C211.499 64.7439 210.382 66.2854 210.382 66.2854C210.382 66.2854 211.499 67.826 212.808 67.826Z" fill="#0D0706"/>
<path d="M230.359 67.4773C229.515 67.4773 228.832 68.1683 228.832 69.0188C228.832 70.3383 230.359 71.467 230.359 71.467C230.359 71.467 231.886 70.3383 231.886 69.0188C231.886 68.1674 231.203 67.4773 230.359 67.4773Z" fill="#0D0706"/>
<path d="M230.359 65.0922C231.203 65.0922 231.886 64.4021 231.886 63.5507C231.886 62.2303 230.359 61.1016 230.359 61.1016C230.359 61.1016 228.832 62.2294 228.832 63.5507C228.832 64.4012 229.516 65.0922 230.359 65.0922Z" fill="#0D0706"/>
<path d="M233.068 67.8258C234.377 67.8258 235.494 66.2852 235.494 66.2852C235.494 66.2852 234.376 64.7437 233.068 64.7437C232.225 64.7437 231.541 65.4337 231.541 66.2852C231.541 67.1366 232.224 67.8258 233.068 67.8258Z" fill="#0D0706"/>
<path d="M227.653 67.8258C228.496 67.8258 229.18 67.1366 229.18 66.2852C229.18 65.4337 228.496 64.7437 227.653 64.7437C226.344 64.7437 225.227 66.2852 225.227 66.2852C225.227 66.2852 226.344 67.8258 227.653 67.8258Z" fill="#0D0706"/>
<path d="M245.256 67.4773C244.412 67.4773 243.729 68.1683 243.729 69.0188C243.729 70.3383 245.256 71.467 245.256 71.467C245.256 71.467 246.783 70.3383 246.783 69.0188C246.783 68.1674 246.099 67.4773 245.256 67.4773Z" fill="#0D0706"/>
<path d="M245.256 65.0922C246.099 65.0922 246.783 64.4021 246.783 63.5507C246.783 62.2303 245.256 61.1016 245.256 61.1016C245.256 61.1016 243.729 62.2294 243.729 63.5507C243.729 64.4012 244.413 65.0922 245.256 65.0922Z" fill="#0D0706"/>
<path d="M247.964 67.8258C249.272 67.8258 250.39 66.2852 250.39 66.2852C250.39 66.2852 249.271 64.7437 247.964 64.7437C247.121 64.7437 246.437 65.4337 246.437 66.2852C246.437 67.1366 247.12 67.8258 247.964 67.8258Z" fill="#0D0706"/>
<path d="M242.546 67.8258C243.39 67.8258 244.073 67.1366 244.073 66.2852C244.073 65.4337 243.39 64.7437 242.546 64.7437C241.238 64.7437 240.12 66.2852 240.12 66.2852C240.12 66.2852 241.238 67.8258 242.546 67.8258Z" fill="#0D0706"/>
</g>
<path d="M1.9372 0.164307H0.0810547V66.2244H1.9372V0.164307Z" fill="#E50064"/>
<path d="M11.7294 26.2442C11.741 30.0146 9.24892 31.4883 7.05026 32.7882C6.81925 32.9246 6.59091 33.0602 6.36792 33.1948C6.59091 33.3294 6.81835 33.4649 7.05026 33.6013C9.24892 34.9012 11.741 36.3741 11.7294 40.1445C11.7205 43.1098 9.29976 45.5144 6.33402 45.5054C3.90346 45.4983 1.93136 43.5155 1.9385 41.0851C1.94206 40.1151 2.32293 39.2039 3.01062 38.5201C3.69921 37.8362 4.61256 37.4618 5.583 37.4645C7.24471 37.4689 8.59155 38.8241 8.5862 40.4851C8.5862 40.502 8.58263 40.5181 8.58085 40.535C8.5532 41.7386 7.56492 42.7086 6.35543 42.7042C5.13078 42.7006 4.13715 41.7012 4.14072 40.477C4.1434 39.6417 4.60989 38.9141 5.2958 38.537C4.71514 38.5985 4.1764 38.8526 3.75629 39.2699C3.26839 39.7549 2.99813 40.4004 2.99635 41.0878C2.9901 42.9351 4.48947 44.4418 6.33759 44.4481C8.71999 44.4552 10.6644 42.5232 10.6716 40.1418C10.6814 36.9759 8.65577 35.7785 6.51241 34.5107C5.83453 34.1104 5.12811 33.6923 4.47966 33.1939C5.12811 32.6964 5.83453 32.2774 6.51241 31.8771C8.65577 30.6102 10.6814 29.4128 10.6716 26.2469C10.6644 23.8655 8.71999 21.9335 6.33759 21.9406C4.48947 21.946 2.9901 23.4536 2.99635 25.3009C2.99813 25.9883 3.26839 26.6347 3.75629 27.1188C4.1764 27.5361 4.71514 27.791 5.2958 27.8517C4.60989 27.4745 4.1425 26.747 4.14072 25.9116C4.13715 24.6875 5.13078 23.6881 6.35543 23.6845C7.56581 23.6801 8.55409 24.6501 8.58085 25.8537C8.58263 25.8706 8.5862 25.8867 8.5862 25.9036C8.59066 27.5637 7.24381 28.9189 5.583 28.9242C4.61256 28.9269 3.69921 28.5524 3.01062 27.8677C2.32203 27.1839 1.94117 26.2727 1.9385 25.3027C1.93136 22.8723 3.90346 20.8895 6.33402 20.8823C9.29976 20.8734 11.7205 23.278 11.7294 26.2433V26.2442Z" fill="#E50064"/>
<path d="M17.7777 26.6788L15.748 28.7075L17.7776 30.7362L19.8073 28.7075L17.7777 26.6788Z" fill="#E50064"/>
<path d="M17.7731 31.1728L15.7432 33.2012L17.7724 35.2302L19.8024 33.2019L17.7731 31.1728Z" fill="#E50064"/>
<path d="M17.7796 35.648L15.75 37.6768L17.7796 39.7055L19.8092 37.6768L17.7796 35.648Z" fill="#E50064"/>
<path d="M22.264 31.1683L20.2344 33.197L22.264 35.2257L24.2936 33.197L22.264 31.1683Z" fill="#E50064"/>
<path d="M11.2588 33.195L13.288 35.2233L15.3172 33.195L13.288 31.1658L11.2588 33.195Z" fill="#E50064"/>
<path d="M27.3613 33.1947L29.3905 35.223L31.4197 33.1947L29.3905 31.1655L27.3613 33.1947Z" fill="#0D0706"/>
<path d="M6.8459 7.75462L5.30762 9.29224L6.8459 10.8299L8.38419 9.29224L6.8459 7.75462Z" fill="#E50064"/>
<path d="M6.84227 11.1597L5.30371 12.697L6.84173 14.2349L8.38029 12.6976L6.84227 11.1597Z" fill="#E50064"/>
<path d="M6.84786 14.5513L5.30957 16.0889L6.84786 17.6265L8.38614 16.0889L6.84786 14.5513Z" fill="#E50064"/>
<path d="M10.2466 11.1574L8.70898 12.6943L10.2466 14.2313L11.7843 12.6943L10.2466 11.1574Z" fill="#E50064"/>
<path d="M3.44852 11.1515L1.91113 12.6887L3.44906 14.2254L4.98645 12.6882L3.44852 11.1515Z" fill="#E50064"/>
<path d="M15.6487 11.1505L14.1113 12.6877L15.6493 14.2245L17.1866 12.6872L15.6487 11.1505Z" fill="#0D0706"/>
<path d="M6.84493 48.8484L5.30664 50.386L6.84493 51.9236L8.38321 50.386L6.84493 48.8484Z" fill="#E50064"/>
<path d="M6.84031 52.2556L5.30176 53.793L6.83978 55.3309L8.37833 53.7935L6.84031 52.2556Z" fill="#E50064"/>
<path d="M6.84981 55.644L5.31152 57.1816L6.84981 58.7193L8.3881 57.1816L6.84981 55.644Z" fill="#E50064"/>
<path d="M10.2447 52.2518L8.70703 53.7888L10.2447 55.3258L11.7823 53.7888L10.2447 52.2518Z" fill="#E50064"/>
<path d="M3.45047 52.2425L1.91309 53.7798L3.45101 55.3165L4.9884 53.7792L3.45047 52.2425Z" fill="#E50064"/>
<path d="M15.6507 52.2418L14.1133 53.7791L15.6512 55.3158L17.1886 53.7785L15.6507 52.2418Z" fill="#0D0706"/>
<path d="M251.062 66.2256H252.918V0.165474H251.062V66.2256Z" fill="#E50064"/>
<path d="M241.27 26.2444C241.258 30.0148 243.75 31.4886 245.949 32.7885C246.18 32.9249 246.408 33.0604 246.631 33.195C246.408 33.3297 246.181 33.4652 245.949 33.6016C243.75 34.9015 241.258 36.3743 241.27 40.1447C241.278 43.1101 243.699 45.5146 246.665 45.5057C249.096 45.4986 251.068 43.5157 251.061 41.0853C251.057 40.1153 250.676 39.2041 249.988 38.5203C249.3 37.8365 248.386 37.462 247.416 37.4647C245.754 37.4692 244.407 38.8243 244.413 40.4853C244.413 40.5023 244.416 40.5183 244.418 40.5352C244.446 41.7389 245.434 42.7089 246.644 42.7044C247.868 42.7008 248.862 41.7014 248.858 40.4773C248.856 39.6419 248.389 38.9144 247.703 38.5373C248.284 38.5988 248.823 38.8529 249.243 39.2701C249.731 39.7551 250.001 40.4006 250.003 41.088C250.009 42.9353 248.51 44.4421 246.661 44.4483C244.279 44.4554 242.335 42.5234 242.327 40.1421C242.318 36.9761 244.343 35.7788 246.487 34.511C247.164 34.1107 247.871 33.6925 248.519 33.1941C247.871 32.6966 247.164 32.2776 246.487 31.8773C244.343 30.6104 242.318 29.413 242.327 26.2471C242.335 23.8658 244.279 21.9337 246.661 21.9409C248.51 21.9462 250.009 23.4539 250.003 25.3012C250.001 25.9886 249.731 26.6349 249.243 27.119C248.823 27.5363 248.284 27.7913 247.703 27.8519C248.389 27.4748 248.856 26.7473 248.858 25.9119C248.862 24.6878 247.868 23.6883 246.644 23.6848C245.433 23.6803 244.445 24.6503 244.418 25.8539C244.416 25.8709 244.413 25.8869 244.413 25.9039C244.408 27.5639 245.755 28.9191 247.416 28.9245C248.386 28.9271 249.3 28.5527 249.988 27.868C250.677 27.1841 251.058 26.273 251.061 25.3029C251.068 22.8726 249.096 20.8897 246.665 20.8826C243.699 20.8737 241.278 23.2782 241.27 26.2435V26.2444Z" fill="#E50064"/>
<path d="M235.222 26.68L233.192 28.7087L235.222 30.7375L237.252 28.7087L235.222 26.68Z" fill="#E50064"/>
<path d="M235.215 31.1477L233.186 33.1768L235.216 35.2051L237.245 33.176L235.215 31.1477Z" fill="#E50064"/>
<path d="M235.227 35.6644L233.197 37.6931L235.227 39.7218L237.256 37.6931L235.227 35.6644Z" fill="#E50064"/>
<path d="M230.732 31.1607L228.702 33.1895L230.732 35.2182L232.761 33.1895L230.732 31.1607Z" fill="#E50064"/>
<path d="M241.741 33.1947L239.711 35.223L237.682 33.1947L239.711 31.1655L241.741 33.1947Z" fill="#E50064"/>
<path d="M223.616 31.184L221.586 33.2124L223.615 35.2415L225.645 33.2131L223.616 31.184Z" fill="#0D0706"/>
<path d="M246.153 7.75463L244.614 9.29224L246.153 10.8299L247.691 9.29224L246.153 7.75463Z" fill="#E50064"/>
<path d="M246.144 11.1367L244.606 12.6746L246.145 14.2119L247.683 12.674L246.144 11.1367Z" fill="#E50064"/>
<path d="M246.159 14.5664L244.621 16.104L246.159 17.6416L247.698 16.104L246.159 14.5664Z" fill="#E50064"/>
<path d="M242.75 11.1512L241.212 12.6882L242.75 14.2252L244.287 12.6882L242.75 11.1512Z" fill="#E50064"/>
<path d="M249.564 11.1742L248.026 12.7109L249.564 14.2482L251.102 12.7115L249.564 11.1742Z" fill="#E50064"/>
<path d="M237.362 11.1747L235.824 12.7114L237.362 14.2487L238.9 12.712L237.362 11.1747Z" fill="#0D0706"/>
<path d="M246.154 48.8484L244.615 50.386L246.154 51.9236L247.692 50.386L246.154 48.8484Z" fill="#E50064"/>
<path d="M246.147 52.2292L244.609 53.7671L246.148 55.3044L247.686 53.7666L246.147 52.2292Z" fill="#E50064"/>
<path d="M246.158 55.6609L244.62 57.1985L246.158 58.7361L247.697 57.1985L246.158 55.6609Z" fill="#E50064"/>
<path d="M242.752 52.2433L241.214 53.7803L242.752 55.3173L244.289 53.7803L242.752 52.2433Z" fill="#E50064"/>
<path d="M249.562 52.2694L248.024 53.8062L249.562 55.3434L251.1 53.8067L249.562 52.2694Z" fill="#E50064"/>
<path d="M237.36 52.2699L235.822 53.8066L237.36 55.3439L238.898 53.8072L237.36 52.2699Z" fill="#0D0706"/>
</g>
<defs>
<clipPath id="clip0_55_46189">
<rect width="258" height="73" fill="white"/>
</clipPath>
<clipPath id="clip1_55_46189">
<rect width="247" height="7" fill="white" transform="translate(3 61)"/>
</clipPath>
</defs>
</svg>
